Simulation
nRows=16
nColumns=15
endheader
time  TH_x TH_y TH_z SC_y  SC_z  SC_x  AC_y  AC_z  AC_x  GH_y  GH_z  GH_yy  EL_x  PS_y
2.681  0.000000  0.000000  0.000000  -21.825889559617877  5.914848531777728  -1.8274154887467065  48.67403438552065  6.1377215899038  0.02880138586874779  -2.483219947341166  8.964704709171423  37.38985301415897  15.863690208691677  120.000000
2.73462  0.000000  0.000000  0.000000  -21.303558621602555  5.580389124855216  -2.240815514499507  48.76133135610794  6.577862267564295  0.15792522064961717  2.2273195555142817  7.243220653065741  35.925001233011145  16.925499003366067  120.000000
2.78824  0.000000  0.000000  0.000000  -21.160456881487264  5.384530086757008  -2.435864359591317  48.868201852596194  7.088834388992117  0.26701071229898254  10.426207924053433  5.880413179493863  30.2073037241868  17.785314125678447  120.000000
2.84186  0.000000  0.000000  0.000000  -21.301318750538705  5.301015296477412  -2.460181798887152  48.96771988770063  7.63799705951719  0.3481865452811926  22.28068557941536  4.947334110925494  20.131996901435247  18.403526067846496  120.000000
2.89548  0.000000  0.000000  0.000000  -21.60655796942461  5.2945337983109875  -2.361451088091228  49.05106121432611  8.188661159995831  0.4015094090748517  35.937969170587124  4.471317149983606  7.675263672794094  18.774350879047894  120.000000
2.9491  0.000000  0.000000  0.000000  -21.96511797078096  5.329481516464289  -2.184704527142406  49.12394267417505  8.705922845145666  0.4312309216474033  48.08728974000579  4.355119753534442  -3.713042171610355  18.917397183208976  120.000000
3.00272  0.000000  0.000000  0.000000  -22.29667271182603  5.375990321739768  -1.9704952254478083  49.19805336826333  9.163370772346335  0.44479214629044295  56.608023711957244  4.427501017757191  -11.789240313058105  18.875530718226983  120.000000
3.05634  0.000000  0.000000  0.000000  -22.55677099288885  5.412869485007906  -1.7517908870424133  49.285265656732015  9.543145064460967  0.44918671471096944  61.37330381546398  4.557949657495647  -16.33069258367225  18.709342804862644  120.000000
3.10996  0.000000  0.000000  0.000000  -22.729233640745143  5.426945490420921  -1.557614824218778  49.39289604850506  9.837428027082872  0.4526241788672332  63.143266112765126  4.692859323558232  -18.025960875980104  18.484665743410027  120.000000
3.16358  0.000000  0.000000  0.000000  -22.815415876337138  5.4121100794125905  -1.4140440889676305  49.5221107343233  10.049237673855146  0.46615577223012217  62.7892655162644  4.830501546044749  -17.693715801445006  18.256386072818263  120.000000
3.2172  0.000000  0.000000  0.000000  -22.825491265527514  5.368691068710824  -1.334791179202494  49.67075767712292  10.184853249934477  0.4958440580640073  61.100280220522286  4.98983729191995  -16.085694681854893  18.056058319431603  120.000000
3.27082  0.000000  0.000000  0.000000  -22.772743949775357  5.300372688654497  -1.3200136505061633  49.83322093368376  10.250842226899737  0.5423257019987314  58.74124458929559  5.18821754177449  -13.842071943500164  17.88955809858181  120.000000
3.32444  0.000000  0.000000  0.000000  -22.670029866425946  5.213409508304978  -1.362562782889905  50.00156852153282  10.256521798659223  0.6046090724946107  56.211133321903446  5.4335934802791686  -11.447818511480666  17.74613962718345  120.000000
3.37806  0.000000  0.000000  0.000000  -22.527784834293044  5.116671252983356  -1.4527706623443075  50.168841633629924  10.214077136670824  0.6804474151346195  53.81648506711004  5.726943404502207  -9.20345990350887  17.611070389087903  120.000000
3.43168  0.000000  0.000000  0.000000  -22.353583468342325  5.019234419568981  -1.581844734307777  50.329044665484986  10.135467973039674  0.7669013756856281  51.68741281579652  6.065699112475933  -7.237885581311981  17.475384713451604  120.000000
3.4853  0.000000  0.000000  0.000000  -22.152177847928993  4.926556933809083  -1.7437258548098042  50.475923671534886  10.028764844524694  0.8609070944754864  49.81812585195847  6.445759028462984  -5.545886230638833  17.339080209509863  120.000000
